<svg width="800" height="800" viewBox="0 0 800 800" fill="none" xmlns="http://www.w3.org/2000/svg">
<rect width="800" height="800" fill="#FFE656"/>
<g clip-path="url(#clip0_2158_19)">
<g clip-path="url(#clip1_2158_19)">
<path d="M669.701 319.013C651.416 319.013 636.572 333.831 636.572 352.119C636.572 370.43 651.416 385.274 669.701 385.274C688.012 385.274 702.831 370.43 702.831 352.119C702.831 333.831 688.012 319.013 669.701 319.013Z" fill="black"/>
<path d="M713.842 289.275C702.002 281.293 687.645 276.58 672.363 276.58H150.219C139.989 276.58 130.199 278.68 121.313 282.439C107.983 288.104 96.6782 297.479 88.6954 309.319C80.6876 321.161 75.9766 335.491 76.0001 350.799C75.9751 356.316 76.7813 361.639 78.1735 366.644C80.6391 375.408 84.8141 383.149 89.697 389.96C97.022 400.189 105.981 408.514 114.233 415.35C118.383 418.769 122.388 421.796 125.903 424.433C129.419 427.046 132.495 429.268 134.717 430.977L134.888 431.124L148.902 441.11L149.024 441.208C160.131 449.094 172.364 455.002 185.131 458.933C197.949 462.839 211.278 464.768 224.706 464.768H597.875C611.278 464.768 624.608 462.839 637.402 458.933C650.195 455.002 662.427 449.094 673.509 441.208L687.645 431.125L687.841 430.979C689.525 429.685 691.722 428.074 694.213 426.243C698.608 422.996 703.93 419.016 709.495 414.377C717.82 407.394 726.708 398.899 733.884 388.497C737.474 383.272 740.599 377.535 742.892 371.236C745.188 364.961 746.578 358.052 746.578 350.802C746.578 340.597 744.478 330.807 740.719 321.944C735.058 308.611 725.659 297.283 713.842 289.275ZM716.284 358.807C715.014 363.469 712.525 368.255 709.131 373.016C704.053 380.096 696.924 386.982 689.747 392.864C686.158 395.819 682.594 398.554 679.249 401.043C676.05 403.386 673.145 405.535 670.508 407.536L656.592 417.472L656.617 417.447C648.17 423.454 638.795 427.994 628.858 431.046C618.92 434.097 608.472 435.611 597.877 435.611H224.706C214.111 435.611 203.613 434.097 193.7 431.046C183.788 428.018 174.438 423.477 166.039 417.521L152.05 407.535C150.072 406.021 147.949 404.483 145.63 402.749C141.358 399.599 136.547 396.01 131.763 392.007C124.609 386.049 117.578 379.116 112.695 371.963C110.253 368.422 108.325 364.833 107.08 361.294C105.786 357.778 105.152 354.36 105.127 350.796C105.152 344.546 106.397 338.686 108.667 333.291C112.109 325.235 117.847 318.325 125.049 313.443C132.25 308.56 140.844 305.752 150.219 305.752H672.363C678.588 305.752 684.472 306.997 689.867 309.293C697.924 312.711 704.858 318.447 709.716 325.65C714.599 332.877 717.406 341.446 717.406 350.797C717.406 353.51 717.041 356.146 716.284 358.807Z" fill="black"/>
<path d="M152.831 319.013C134.545 319.013 119.725 333.831 119.725 352.119C119.725 370.43 134.544 385.274 152.831 385.274C171.142 385.274 185.961 370.43 185.961 352.119C185.961 333.831 171.142 319.013 152.831 319.013Z" fill="black"/>
<path d="M252.245 322.991C225.903 322.991 204.516 344.354 204.516 370.672C204.516 397.04 225.903 418.377 252.245 418.377C278.587 418.377 299.95 397.04 299.95 370.672C299.952 344.354 278.589 322.991 252.245 322.991Z" fill="black"/>
<path d="M358.276 322.991C331.909 322.991 310.572 344.354 310.572 370.672C310.572 397.04 331.909 418.377 358.276 418.377C384.619 418.377 405.981 397.04 405.981 370.672C405.981 344.354 384.619 322.991 358.276 322.991Z" fill="black"/>
<path d="M464.281 322.991C437.963 322.991 416.577 344.354 416.577 370.672C416.577 397.04 437.964 418.377 464.281 418.377C490.624 418.377 511.986 397.04 511.986 370.672C511.988 344.354 490.625 322.991 464.281 322.991Z" fill="black"/>
<path d="M570.313 322.991C543.97 322.991 522.608 344.354 522.608 370.672C522.608 397.04 543.97 418.377 570.313 418.377C596.655 418.377 618.017 397.04 618.017 370.672C618.017 344.354 596.655 322.991 570.313 322.991Z" fill="black"/>
<path d="M86.5972 169.916V261.346H749.217V228.216L623.316 169.916H86.5972Z" fill="black"/>
<path d="M456.225 72.8688L372.363 41.9609H169.996V151.263H456.225V72.8688Z" fill="black"/>
<path d="M241.358 -50.7637H220.069V34.2957H241.358V-50.7637Z" fill="black"/>
<path d="M493.286 81.7568H474.146V141.302H493.286V81.7568Z" fill="black"/>
<path d="M774.803 96.2832H509.228V126.777H774.803V96.2832Z" fill="black"/>
<path d="M791.478 90.8881V132.196L876 135.468V87.6162L791.478 90.8881Z" fill="black"/>
</g>
<path d="M788.5 798C788.5 809 777.25 818 763.5 818H38.5C24.75 818 13.5 809 13.5 798V498C13.5 487 24.75 478 38.5 478H763.5C777.25 478 788.5 487 788.5 498V798Z" fill="#B8CA43"/>
<path d="M763.5 828H38.5C17.25 828 1 815 1 798V498C1 481 17.25 468 38.5 468H763.5C784.75 468 801 481 801 498V798C801 815 784.75 828 763.5 828ZM38.5 488C31 488 26 492 26 498V798C26 804 31 808 38.5 808H763.5C771 808 776 804 776 798V498C776 492 771 488 763.5 488H38.5Z" fill="#231C1C"/>
<path d="M726 728V568C698.5 568 676 550 676 528H126C126 550 103.5 568 76 568V728C103.5 728 126 746 126 768H676C676 746 698.5 728 726 728Z" fill="#B8CA43"/>
<path d="M688.5 778H113.5V768C113.5 751 97.25 738 76 738H63.5V558H76C97.25 558 113.5 545 113.5 528V518H688.5V528C688.5 545 704.75 558 726 558H738.5V738H726C704.75 738 688.5 751 688.5 768V778ZM137.25 758H664.75C669.75 738 688.5 723 713.5 719V577C688.5 573 669.75 558 664.75 538H137.25C132.25 558 113.5 573 88.5 577V719C113.5 723 132.25 738 137.25 758Z" fill="#231C1C"/>
<path d="M238.5 648C238.5 666.385 242.703 684.59 250.87 701.576C259.036 718.561 271.006 733.995 286.095 746.995C301.185 759.995 319.099 770.307 338.814 777.343C358.529 784.379 379.66 788 401 788C422.34 788 443.471 784.379 463.186 777.343C482.901 770.307 500.815 759.995 515.905 746.995C530.994 733.995 542.964 718.561 551.13 701.576C559.297 684.59 563.5 666.385 563.5 648C563.5 629.615 559.297 611.41 551.13 594.424C542.964 577.439 530.994 562.005 515.905 549.005C485.43 522.75 444.098 508 401 508C357.902 508 316.57 522.75 286.095 549.005C255.62 575.26 238.5 610.87 238.5 648Z" fill="#E1E0A6"/>
<path d="M401 798C304.75 798 226 731 226 648C226 565 304.75 498 401 498C497.25 498 576 565 576 648C576 731 497.25 798 401 798ZM401 518C318.5 518 251 576 251 648C251 720 318.5 778 401 778C483.5 778 551 720 551 648C551 576 483.5 518 401 518Z" fill="#231C1C"/>
<path d="M388.5 508H413.5V788H388.5V508Z" fill="#231C1C"/>
<path d="M401 758C379.75 758 359.75 751 346 739C333.5 728 326 713 326 698H351C351 708 356 718 364.75 725C374.75 733 387.25 738 401 738C428.5 738 451 720 451 698C451 676 428.5 658 401 658C359.75 658 326 631 326 598C326 565 359.75 538 401 538C442.25 538 476 565 476 598H451C451 576 428.5 558 401 558C373.5 558 351 576 351 598C351 620 373.5 638 401 638C442.25 638 476 665 476 698C476 731 442.25 758 401 758Z" fill="#231C1C"/>
</g>
<defs>
<clipPath id="clip0_2158_19">
<rect width="800" height="800" fill="white"/>
</clipPath>
<clipPath id="clip1_2158_19">
<rect width="800" height="800" fill="white" transform="translate(76 -193)"/>
</clipPath>
</defs>
</svg>
